<?xml version="1.0" encoding="UTF-8" standalone="no"?>
<!DOCTYPE svg PUBLIC "-//W3C//DTD SVG 1.1//EN"
 "http://www.w3.org/Graphics/SVG/1.1/DTD/svg11.dtd">
<!-- Generated by graphviz version 12.2.1 (20241206.2353)
 -->
<!-- Pages: 1 -->
<svg width="2328pt" height="644pt"
 viewBox="0.00 0.00 2327.75 644.25" xmlns="http://www.w3.org/2000/svg" xmlns:xlink="http://www.w3.org/1999/xlink">
<g id="graph0" class="graph" transform="scale(1 1) rotate(0) translate(4 640.25)">
<polygon fill="white" stroke="none" points="-4,4 -4,-640.25 2323.75,-640.25 2323.75,4 -4,4"/>
<g id="node1" class="node">
<title></title>
</g>
<!-- q0 -->
<g id="node2" class="node">
<title>q0</title>
<ellipse fill="none" stroke="black" cx="185" cy="-543.12" rx="20.13" ry="20.13"/>
<text text-anchor="middle" x="185" y="-538.07" font-family="Times New Roman,serif" font-size="14.00">q0</text>
</g>
<!-- &#45;&gt;q0 -->
<g id="edge1" class="edge">
<title>&#45;&gt;q0</title>
<path fill="none" stroke="black" d="M185,-600.29C185,-592.75 185,-583.63 185,-574.95"/>
<polygon fill="black" stroke="black" points="188.5,-575.09 185,-565.09 181.5,-575.09 188.5,-575.09"/>
</g>
<!-- qDead -->
<g id="node4" class="node">
<title>qDead</title>
<ellipse fill="none" stroke="black" cx="1104" cy="-34.97" rx="34.97" ry="34.97"/>
<text text-anchor="middle" x="1104" y="-29.92" font-family="Times New Roman,serif" font-size="14.00">qDead</text>
</g>
<!-- q0&#45;&gt;qDead -->
<g id="edge4" class="edge">
<title>q0&#45;&gt;qDead</title>
<path fill="none" stroke="black" d="M164.49,-541.4C116.33,-538.5 0,-523.98 0,-451.36 0,-451.36 0,-451.36 0,-156.33 0,-122.19 6.32,-106.46 35,-87.95 121.68,-32 862.58,-34.01 1057.29,-35.52"/>
<polygon fill="black" stroke="black" points="1057.25,-39.02 1067.27,-35.6 1057.3,-32.02 1057.25,-39.02"/>
<text text-anchor="middle" x="12.75" y="-306.17" font-family="Times New Roman,serif" font-size="14.00">Verb</text>
</g>
<!-- q0&#45;&gt;qDead -->
<g id="edge5" class="edge">
<title>q0&#45;&gt;qDead</title>
<path fill="none" stroke="black" d="M165,-539.15C142.46,-534.93 105.74,-525.32 81,-504.99 59.56,-487.37 49,-479.12 49,-451.36 49,-451.36 49,-451.36 49,-156.33 49,-122.77 53.15,-106.67 81,-87.95 162.63,-33.06 867.31,-34.23 1057.09,-35.55"/>
<polygon fill="black" stroke="black" points="1057.04,-39.05 1067.07,-35.63 1057.09,-32.05 1057.04,-39.05"/>
<text text-anchor="middle" x="60.62" y="-306.17" font-family="Times New Roman,serif" font-size="14.00">Adv</text>
</g>
<!-- q0&#45;&gt;qDead -->
<g id="edge6" class="edge">
<title>q0&#45;&gt;qDead</title>
<path fill="none" stroke="black" d="M166.79,-533.88C140.49,-520.58 95,-491.75 95,-451.36 95,-451.36 95,-451.36 95,-156.33 95,-118.15 113.27,-105.83 147,-87.95 227.83,-45.1 876.12,-37.51 1057.18,-36.23"/>
<polygon fill="black" stroke="black" points="1057.18,-39.73 1067.15,-36.16 1057.13,-32.73 1057.18,-39.73"/>
<text text-anchor="middle" x="116.38" y="-306.17" font-family="Times New Roman,serif" font-size="14.00">AdjNeg</text>
</g>
<!-- q0&#45;&gt;qDead -->
<g id="edge7" class="edge">
<title>q0&#45;&gt;qDead</title>
<path fill="none" stroke="black" d="M177.27,-524.07C170.26,-506.01 161,-477.28 161,-451.36 161,-451.36 161,-451.36 161,-156.33 161,-122.19 167.4,-106.58 196,-87.95 268.46,-40.74 881.95,-36.27 1057.34,-35.96"/>
<polygon fill="black" stroke="black" points="1057.21,-39.46 1067.21,-35.95 1057.2,-32.46 1057.21,-39.46"/>
<text text-anchor="middle" x="174.12" y="-306.17" font-family="Times New Roman,serif" font-size="14.00">Subs</text>
</g>
<!-- q0&#45;&gt;qDead -->
<g id="edge8" class="edge">
<title>q0&#45;&gt;qDead</title>
<path fill="none" stroke="black" d="M192.91,-524.44C200.23,-506.43 210,-477.51 210,-451.36 210,-451.36 210,-451.36 210,-156.33 210,-119.45 224.9,-106.11 257,-87.95 326.77,-48.47 890.15,-38.55 1057.37,-36.47"/>
<polygon fill="black" stroke="black" points="1057.24,-39.97 1067.2,-36.35 1057.16,-32.97 1057.24,-39.97"/>
<text text-anchor="middle" x="229.88" y="-306.17" font-family="Times New Roman,serif" font-size="14.00">AdjPos</text>
</g>
<!-- q0&#45;&gt;qDead -->
<g id="edge9" class="edge">
<title>q0&#45;&gt;qDead</title>
<path fill="none" stroke="black" d="M203.23,-533.55C229.01,-520.01 273,-491.09 273,-451.36 273,-451.36 273,-451.36 273,-310.22 273,-210.99 217.46,-151.1 294,-87.95 352.98,-39.29 894.17,-35.78 1057.53,-35.84"/>
<polygon fill="black" stroke="black" points="1057.11,-39.34 1067.11,-35.85 1057.12,-32.34 1057.11,-39.34"/>
<text text-anchor="middle" x="294.38" y="-306.17" font-family="Times New Roman,serif" font-size="14.00">AdjNeu</text>
</g>
<!-- q1 -->
<g id="node6" class="node">
<title>q1</title>
<ellipse fill="none" stroke="black" cx="1973" cy="-450.36" rx="20.13" ry="20.13"/>
<text text-anchor="middle" x="1973" y="-445.31" font-family="Times New Roman,serif" font-size="14.00">q1</text>
</g>
<!-- q0&#45;&gt;q1 -->
<g id="edge2" class="edge">
<title>q0&#45;&gt;q1</title>
<path fill="none" stroke="black" d="M205.39,-541.09C386.49,-531.89 1718.27,-464.29 1941.34,-452.97"/>
<polygon fill="black" stroke="black" points="1941.2,-456.48 1951.01,-452.48 1940.84,-449.49 1941.2,-456.48"/>
<text text-anchor="middle" x="1248.9" y="-491.69" font-family="Times New Roman,serif" font-size="14.00">Det</text>
</g>
<!-- q0&#45;&gt;q1 -->
<g id="edge3" class="edge">
<title>q0&#45;&gt;q1</title>
<path fill="none" stroke="black" d="M205.57,-541.73C314.66,-539.57 836.68,-528.43 1263,-504.99 1525.45,-490.57 1841.74,-463.11 1941.37,-454.21"/>
<polygon fill="black" stroke="black" points="1941.53,-457.71 1951.18,-453.34 1940.91,-450.74 1941.53,-457.71"/>
<text text-anchor="middle" x="1529.74" y="-491.69" font-family="Times New Roman,serif" font-size="14.00">Pron</text>
</g>
<!-- qPos -->
<g id="node3" class="node">
<title>qPos</title>
<ellipse fill="none" stroke="black" cx="1397" cy="-157.33" rx="28.83" ry="28.83"/>
<ellipse fill="none" stroke="black" cx="1397" cy="-157.33" rx="32.83" ry="32.83"/>
<text text-anchor="middle" x="1397" y="-152.28" font-family="Times New Roman,serif" font-size="14.00">qPos</text>
</g>
<!-- qPos&#45;&gt;qDead -->
<g id="edge34" class="edge">
<title>qPos&#45;&gt;qDead</title>
<path fill="none" stroke="black" d="M1366.86,-144.33C1343.55,-134.64 1310.76,-120.07 1283.5,-104.45 1272.43,-98.1 1271.4,-93.69 1260,-87.95 1224.2,-69.9 1180.73,-56.01 1148.78,-47.15"/>
<polygon fill="black" stroke="black" points="1150.02,-43.86 1139.45,-44.63 1148.19,-50.62 1150.02,-43.86"/>
<text text-anchor="middle" x="1293.25" y="-91.15" font-family="Times New Roman,serif" font-size="14.00">Det</text>
</g>
<!-- qPos&#45;&gt;qDead -->
<g id="edge35" class="edge">
<title>qPos&#45;&gt;qDead</title>
<path fill="none" stroke="black" d="M1371.02,-137.25C1343.85,-117.33 1304.89,-88.84 1303,-87.95 1253.29,-64.41 1191.37,-50.38 1149.91,-42.94"/>
<polygon fill="black" stroke="black" points="1150.74,-39.53 1140.28,-41.27 1149.54,-46.43 1150.74,-39.53"/>
<text text-anchor="middle" x="1337.34" y="-91.15" font-family="Times New Roman,serif" font-size="14.00">Verb</text>
</g>
<!-- qPos&#45;&gt;qDead -->
<g id="edge36" class="edge">
<title>qPos&#45;&gt;qDead</title>
<path fill="none" stroke="black" d="M1384.14,-126.71C1376.69,-112.91 1365.98,-97.46 1352,-87.95 1291.15,-46.52 1203.88,-37.05 1150.73,-35.45"/>
<polygon fill="black" stroke="black" points="1150.87,-31.95 1140.8,-35.25 1150.73,-38.95 1150.87,-31.95"/>
<text text-anchor="middle" x="1379.85" y="-91.15" font-family="Times New Roman,serif" font-size="14.00">Adv</text>
</g>
<!-- qPos&#45;&gt;qDead -->
<g id="edge37" class="edge">
<title>qPos&#45;&gt;qDead</title>
<path fill="none" stroke="black" d="M1404.09,-124.97C1405.13,-112.11 1403.61,-97.93 1395,-87.95 1363.86,-51.84 1224.62,-40.77 1150.61,-37.41"/>
<polygon fill="black" stroke="black" points="1150.97,-33.92 1140.83,-37 1150.67,-40.92 1150.97,-33.92"/>
<text text-anchor="middle" x="1415.58" y="-91.15" font-family="Times New Roman,serif" font-size="14.00">Pron</text>
</g>
<!-- qPos&#45;&gt;qDead -->
<g id="edge38" class="edge">
<title>qPos&#45;&gt;qDead</title>
<path fill="none" stroke="black" d="M1420.9,-134.11C1433.32,-119.9 1443.69,-101.64 1432,-87.95 1396.4,-46.26 1232.73,-37.83 1150.88,-36.25"/>
<polygon fill="black" stroke="black" points="1150.99,-32.75 1140.93,-36.08 1150.88,-39.75 1150.99,-32.75"/>
<text text-anchor="middle" x="1458.48" y="-91.15" font-family="Times New Roman,serif" font-size="14.00">AdjNeg</text>
</g>
<!-- qPos&#45;&gt;qDead -->
<g id="edge39" class="edge">
<title>qPos&#45;&gt;qDead</title>
<path fill="none" stroke="black" d="M1428.3,-146.26C1461.12,-134.11 1505.22,-112.27 1484,-87.95 1441.27,-38.98 1242.78,-34.47 1150.9,-35.09"/>
<polygon fill="black" stroke="black" points="1150.93,-31.59 1140.97,-35.18 1151,-38.59 1150.93,-31.59"/>
<text text-anchor="middle" x="1502.68" y="-91.15" font-family="Times New Roman,serif" font-size="14.00">Subs</text>
</g>
<!-- qPos&#45;&gt;qDead -->
<g id="edge40" class="edge">
<title>qPos&#45;&gt;qDead</title>
<path fill="none" stroke="black" d="M1427.78,-145.36C1462.41,-132.72 1514.57,-112.63 1520,-104.45 1524.05,-98.34 1524.85,-93.44 1520,-87.95 1495.82,-60.56 1253.72,-44.16 1150.37,-38.36"/>
<polygon fill="black" stroke="black" points="1150.75,-34.88 1140.57,-37.82 1150.36,-41.87 1150.75,-34.88"/>
<text text-anchor="middle" x="1543.22" y="-91.15" font-family="Times New Roman,serif" font-size="14.00">AdjPos</text>
</g>
<!-- qPos&#45;&gt;qDead -->
<g id="edge41" class="edge">
<title>qPos&#45;&gt;qDead</title>
<path fill="none" stroke="black" d="M1364.5,-150.08C1327.01,-142.22 1264,-126.96 1213.25,-104.45 1187.99,-93.24 1161.69,-76.92 1141.22,-63.02"/>
<polygon fill="black" stroke="black" points="1143.43,-60.29 1133.21,-57.49 1139.45,-66.05 1143.43,-60.29"/>
<text text-anchor="middle" x="1234.62" y="-91.15" font-family="Times New Roman,serif" font-size="14.00">AdjNeu</text>
</g>
<!-- qDead&#45;&gt;qDead -->
<g id="edge42" class="edge">
<title>qDead&#45;&gt;qDead</title>
<path fill="none" stroke="black" d="M1139.15,-36.47C1149.21,-36.41 1156.97,-35.91 1156.97,-34.97 1156.97,-34.45 1154.52,-34.06 1150.58,-33.81"/>
<polygon fill="black" stroke="black" points="1150.76,-30.31 1140.66,-33.52 1150.56,-37.31 1150.76,-30.31"/>
<text text-anchor="middle" x="1166.72" y="-29.92" font-family="Times New Roman,serif" font-size="14.00">Det</text>
</g>
<!-- qDead&#45;&gt;qDead -->
<g id="edge43" class="edge">
<title>qDead&#45;&gt;qDead</title>
<path fill="none" stroke="black" d="M1139.21,-37.84C1158.58,-38.35 1176.47,-37.4 1176.47,-34.97 1176.47,-33.04 1165.11,-32.04 1150.69,-31.98"/>
<polygon fill="black" stroke="black" points="1150.68,-28.48 1140.72,-32.09 1150.76,-35.48 1150.68,-28.48"/>
<text text-anchor="middle" x="1189.22" y="-29.92" font-family="Times New Roman,serif" font-size="14.00">Verb</text>
</g>
<!-- qDead&#45;&gt;qDead -->
<g id="edge44" class="edge">
<title>qDead&#45;&gt;qDead</title>
<path fill="none" stroke="black" d="M1139.1,-38.8C1169.13,-40.41 1201.97,-39.13 1201.97,-34.97 1201.97,-31.33 1176.83,-29.9 1150.43,-30.68"/>
<polygon fill="black" stroke="black" points="1150.46,-27.17 1140.62,-31.08 1150.75,-34.17 1150.46,-27.17"/>
<text text-anchor="middle" x="1213.6" y="-29.92" font-family="Times New Roman,serif" font-size="14.00">Adv</text>
</g>
<!-- qDead&#45;&gt;qDead -->
<g id="edge45" class="edge">
<title>qDead&#45;&gt;qDead</title>
<path fill="none" stroke="black" d="M1138.9,-39.54C1177.84,-42.45 1225.22,-40.93 1225.22,-34.97 1225.22,-29.58 1186.31,-27.82 1150.03,-29.7"/>
<polygon fill="black" stroke="black" points="1150.17,-26.19 1140.41,-30.31 1150.61,-33.17 1150.17,-26.19"/>
<text text-anchor="middle" x="1237.97" y="-29.92" font-family="Times New Roman,serif" font-size="14.00">Pron</text>
</g>
<!-- qDead&#45;&gt;qDead -->
<g id="edge46" class="edge">
<title>qDead&#45;&gt;qDead</title>
<path fill="none" stroke="black" d="M1139.04,-40.13C1186.92,-44.49 1250.72,-42.77 1250.72,-34.97 1250.72,-27.79 1196.5,-25.77 1150.51,-28.9"/>
<polygon fill="black" stroke="black" points="1150.24,-25.42 1140.55,-29.69 1150.79,-32.39 1150.24,-25.42"/>
<text text-anchor="middle" x="1272.1" y="-29.92" font-family="Times New Roman,serif" font-size="14.00">AdjNeg</text>
</g>
<!-- qDead&#45;&gt;qDead -->
<g id="edge47" class="edge">
<title>qDead&#45;&gt;qDead</title>
<path fill="none" stroke="black" d="M1138.75,-40.41C1199.4,-46.56 1293.47,-44.75 1293.47,-34.97 1293.47,-25.79 1210.45,-23.64 1150.1,-28.5"/>
<polygon fill="black" stroke="black" points="1149.9,-25.01 1140.25,-29.4 1150.53,-31.98 1149.9,-25.01"/>
<text text-anchor="middle" x="1306.6" y="-29.92" font-family="Times New Roman,serif" font-size="14.00">Subs</text>
</g>
<!-- qDead&#45;&gt;qDead -->
<g id="edge48" class="edge">
<title>qDead&#45;&gt;qDead</title>
<path fill="none" stroke="black" d="M1138.93,-40.84C1207.53,-48.58 1319.72,-46.62 1319.72,-34.97 1319.72,-23.94 1219.05,-21.6 1150.13,-27.96"/>
<polygon fill="black" stroke="black" points="1150.03,-24.45 1140.44,-28.95 1150.74,-31.42 1150.03,-24.45"/>
<text text-anchor="middle" x="1339.6" y="-29.92" font-family="Times New Roman,serif" font-size="14.00">AdjPos</text>
</g>
<!-- qDead&#45;&gt;qDead -->
<g id="edge49" class="edge">
<title>qDead&#45;&gt;qDead</title>
<path fill="none" stroke="black" d="M1138.75,-41.07C1217.8,-50.62 1359.47,-48.58 1359.47,-34.97 1359.47,-21.98 1230.24,-19.54 1149.77,-27.66"/>
<polygon fill="black" stroke="black" points="1149.81,-24.13 1140.26,-28.71 1150.58,-31.09 1149.81,-24.13"/>
<text text-anchor="middle" x="1380.85" y="-29.92" font-family="Times New Roman,serif" font-size="14.00">AdjNeu</text>
</g>
<!-- qNeu -->
<g id="node5" class="node">
<title>qNeu</title>
<ellipse fill="none" stroke="black" cx="558" cy="-157.33" rx="30.88" ry="30.88"/>
<ellipse fill="none" stroke="black" cx="558" cy="-157.33" rx="34.88" ry="34.88"/>
<text text-anchor="middle" x="558" y="-152.28" font-family="Times New Roman,serif" font-size="14.00">qNeu</text>
</g>
<!-- qNeu&#45;&gt;qDead -->
<g id="edge50" class="edge">
<title>qNeu&#45;&gt;qDead</title>
<path fill="none" stroke="black" d="M523.4,-151.56C472.91,-143.29 388.44,-123.62 421.5,-87.95 464.61,-41.43 910.38,-36.35 1057.31,-35.95"/>
<polygon fill="black" stroke="black" points="1057.07,-39.45 1067.07,-35.93 1057.06,-32.45 1057.07,-39.45"/>
<text text-anchor="middle" x="431.25" y="-91.15" font-family="Times New Roman,serif" font-size="14.00">Det</text>
</g>
<!-- qNeu&#45;&gt;qDead -->
<g id="edge51" class="edge">
<title>qNeu&#45;&gt;qDead</title>
<path fill="none" stroke="black" d="M524.65,-146.55C489.3,-134.6 441.53,-112.86 464.5,-87.95 504.53,-44.54 916.97,-37.38 1057.44,-36.2"/>
<polygon fill="black" stroke="black" points="1057.15,-39.71 1067.12,-36.13 1057.09,-32.71 1057.15,-39.71"/>
<text text-anchor="middle" x="477.25" y="-91.15" font-family="Times New Roman,serif" font-size="14.00">Verb</text>
</g>
<!-- qNeu&#45;&gt;qDead -->
<g id="edge52" class="edge">
<title>qNeu&#45;&gt;qDead</title>
<path fill="none" stroke="black" d="M530.26,-135.98C514.08,-121.72 499.29,-102.64 512.75,-87.95 549.32,-48.02 924.3,-38.62 1057.43,-36.54"/>
<polygon fill="black" stroke="black" points="1057.35,-40.04 1067.29,-36.39 1057.24,-33.04 1057.35,-40.04"/>
<text text-anchor="middle" x="524.38" y="-91.15" font-family="Times New Roman,serif" font-size="14.00">Adv</text>
</g>
<!-- qNeu&#45;&gt;qDead -->
<g id="edge53" class="edge">
<title>qNeu&#45;&gt;qDead</title>
<path fill="none" stroke="black" d="M550.12,-122.91C549.2,-110.48 550.93,-97.17 559.5,-87.95 593.12,-51.77 931.69,-40.07 1057.37,-36.95"/>
<polygon fill="black" stroke="black" points="1057.42,-40.45 1067.33,-36.71 1057.25,-33.46 1057.42,-40.45"/>
<text text-anchor="middle" x="572.25" y="-91.15" font-family="Times New Roman,serif" font-size="14.00">Pron</text>
</g>
<!-- qNeu&#45;&gt;qDead -->
<g id="edge54" class="edge">
<title>qNeu&#45;&gt;qDead</title>
<path fill="none" stroke="black" d="M572.92,-125.68C581.32,-111.8 593.17,-96.6 608.25,-87.95 684.12,-44.43 949.25,-37.23 1057.47,-36.13"/>
<polygon fill="black" stroke="black" points="1057.17,-39.63 1067.14,-36.04 1057.11,-32.63 1057.17,-39.63"/>
<text text-anchor="middle" x="629.62" y="-91.15" font-family="Times New Roman,serif" font-size="14.00">AdjNeg</text>
</g>
<!-- qNeu&#45;&gt;qDead -->
<g id="edge55" class="edge">
<title>qNeu&#45;&gt;qDead</title>
<path fill="none" stroke="black" d="M588.69,-140.39C607.08,-130.56 630.74,-117.38 651,-104.45 661.53,-97.73 662.12,-92.51 673.75,-87.95 742.84,-60.84 960.94,-44.65 1057.37,-38.65"/>
<polygon fill="black" stroke="black" points="1057.5,-42.14 1067.27,-38.04 1057.07,-35.16 1057.5,-42.14"/>
<text text-anchor="middle" x="686.88" y="-91.15" font-family="Times New Roman,serif" font-size="14.00">Subs</text>
</g>
<!-- qNeu&#45;&gt;qDead -->
<g id="edge56" class="edge">
<title>qNeu&#45;&gt;qDead</title>
<path fill="none" stroke="black" d="M590.53,-144.38C642.52,-125.31 739.35,-89.93 747.25,-87.95 856.72,-60.5 988.97,-45.93 1057.6,-39.72"/>
<polygon fill="black" stroke="black" points="1057.69,-43.22 1067.35,-38.86 1057.08,-36.25 1057.69,-43.22"/>
<text text-anchor="middle" x="767.12" y="-91.15" font-family="Times New Roman,serif" font-size="14.00">AdjPos</text>
</g>
<!-- qNeu&#45;&gt;qDead -->
<g id="edge57" class="edge">
<title>qNeu&#45;&gt;qDead</title>
<path fill="none" stroke="black" d="M523.33,-151.93C473.66,-144.84 386.11,-129.12 367.25,-104.45 362.8,-98.62 362.25,-93.31 367.25,-87.95 414.27,-37.49 902.62,-35.13 1057.29,-35.67"/>
<polygon fill="black" stroke="black" points="1057.16,-39.17 1067.17,-35.71 1057.19,-32.17 1057.16,-39.17"/>
<text text-anchor="middle" x="388.62" y="-91.15" font-family="Times New Roman,serif" font-size="14.00">AdjNeu</text>
</g>
<!-- q1&#45;&gt;qDead -->
<g id="edge12" class="edge">
<title>q1&#45;&gt;qDead</title>
<path fill="none" stroke="black" d="M1971.16,-430.02C1964.93,-367.82 1943.15,-174.05 1909,-122.45 1893.9,-99.63 1883.87,-96.86 1858,-87.95 1726.17,-42.53 1293.57,-36.7 1150.44,-36.03"/>
<polygon fill="black" stroke="black" points="1150.6,-32.53 1140.59,-35.99 1150.57,-39.53 1150.6,-32.53"/>
<text text-anchor="middle" x="1962.02" y="-259.79" font-family="Times New Roman,serif" font-size="14.00">Det</text>
</g>
<!-- q1&#45;&gt;qDead -->
<g id="edge13" class="edge">
<title>q1&#45;&gt;qDead</title>
<path fill="none" stroke="black" d="M1978.46,-430.63C1979.91,-424.79 1981.28,-418.29 1982,-412.23 1982.87,-404.95 1982.15,-403.06 1982,-395.73 1979.17,-252.99 2023.88,-137.54 1890,-87.95 1753.12,-37.24 1297.99,-34.96 1150.54,-35.6"/>
<polygon fill="black" stroke="black" points="1150.75,-32.1 1140.77,-35.65 1150.78,-39.1 1150.75,-32.1"/>
<text text-anchor="middle" x="1998.59" y="-259.79" font-family="Times New Roman,serif" font-size="14.00">Adv</text>
</g>
<!-- q1&#45;&gt;qDead -->
<g id="edge14" class="edge">
<title>q1&#45;&gt;qDead</title>
<path fill="none" stroke="black" d="M1991.03,-440.73C2016.51,-427.12 2060,-398.11 2060,-358.6 2060,-358.6 2060,-358.6 2060,-156.33 2060,-87.48 1987.53,-105.67 1921,-87.95 1773.93,-48.77 1301.12,-38.77 1150.53,-36.54"/>
<polygon fill="black" stroke="black" points="1150.99,-33.05 1140.94,-36.41 1150.89,-40.05 1150.99,-33.05"/>
<text text-anchor="middle" x="2072.75" y="-259.79" font-family="Times New Roman,serif" font-size="14.00">Pron</text>
</g>
<!-- q1&#45;&gt;qDead -->
<g id="edge15" class="edge">
<title>q1&#45;&gt;qDead</title>
<path fill="none" stroke="black" d="M1993.09,-446.63C2033.77,-439.85 2122,-418.27 2122,-358.6 2122,-358.6 2122,-358.6 2122,-156.33 2122,-122.56 2002.03,-91.84 1984,-87.95 1822.54,-53.11 1307.75,-40.07 1150.24,-36.84"/>
<polygon fill="black" stroke="black" points="1150.68,-33.35 1140.61,-36.64 1150.53,-40.34 1150.68,-33.35"/>
<text text-anchor="middle" x="2143.38" y="-259.79" font-family="Times New Roman,serif" font-size="14.00">AdjNeg</text>
</g>
<!-- q1&#45;&gt;qDead -->
<g id="edge16" class="edge">
<title>q1&#45;&gt;qDead</title>
<path fill="none" stroke="black" d="M1992.83,-445.88C2048.31,-435.6 2201,-403.23 2201,-358.6 2201,-358.6 2201,-358.6 2201,-156.33 2201,-48.96 1359.99,-37.34 1150.72,-36.11"/>
<polygon fill="black" stroke="black" points="1150.79,-32.61 1140.77,-36.06 1150.75,-39.61 1150.79,-32.61"/>
<text text-anchor="middle" x="2220.88" y="-259.79" font-family="Times New Roman,serif" font-size="14.00">AdjPos</text>
</g>
<!-- q1&#45;&gt;qDead -->
<g id="edge17" class="edge">
<title>q1&#45;&gt;qDead</title>
<path fill="none" stroke="black" d="M1993.42,-447.72C2061.58,-441.69 2277,-417.95 2277,-358.6 2277,-358.6 2277,-358.6 2277,-156.33 2277,-41.06 1369.02,-35.46 1150.76,-35.78"/>
<polygon fill="black" stroke="black" points="1150.93,-32.28 1140.94,-35.8 1150.95,-39.28 1150.93,-32.28"/>
<text text-anchor="middle" x="2298.38" y="-259.79" font-family="Times New Roman,serif" font-size="14.00">AdjNeu</text>
</g>
<!-- q2 -->
<g id="node7" class="node">
<title>q2</title>
<ellipse fill="none" stroke="black" cx="1215" cy="-357.6" rx="20.13" ry="20.13"/>
<text text-anchor="middle" x="1215" y="-352.55" font-family="Times New Roman,serif" font-size="14.00">q2</text>
</g>
<!-- q1&#45;&gt;q2 -->
<g id="edge10" class="edge">
<title>q1&#45;&gt;q2</title>
<path fill="none" stroke="black" d="M1952.96,-447.39C1899.56,-442.11 1749.43,-427.03 1624.75,-412.23 1483.28,-395.43 1314.74,-372.42 1246.25,-362.95"/>
<polygon fill="black" stroke="black" points="1246.9,-359.51 1236.52,-361.6 1245.94,-366.44 1246.9,-359.51"/>
<text text-anchor="middle" x="1637.88" y="-398.93" font-family="Times New Roman,serif" font-size="14.00">Subs</text>
</g>
<!-- q1&#45;&gt;q2 -->
<g id="edge11" class="edge">
<title>q1&#45;&gt;q2</title>
<path fill="none" stroke="black" d="M1953.11,-445.48C1902.74,-435.77 1765.99,-410.18 1651,-395.73 1500.3,-376.79 1319.05,-364.79 1246.89,-360.44"/>
<polygon fill="black" stroke="black" points="1247.19,-356.95 1237,-359.85 1246.78,-363.94 1247.19,-356.95"/>
<text text-anchor="middle" x="1770.35" y="-398.93" font-family="Times New Roman,serif" font-size="14.00">Verb</text>
</g>
<!-- q2&#45;&gt;qPos -->
<g id="edge18" class="edge">
<title>q2&#45;&gt;qPos</title>
<path fill="none" stroke="black" d="M1228.38,-342.02C1257.55,-310.24 1327.44,-234.1 1367.49,-190.48"/>
<polygon fill="black" stroke="black" points="1369.87,-193.06 1374.05,-183.33 1364.71,-188.33 1369.87,-193.06"/>
<text text-anchor="middle" x="1334.96" y="-259.79" font-family="Times New Roman,serif" font-size="14.00">AdjPos</text>
</g>
<!-- q2&#45;&gt;qDead -->
<g id="edge24" class="edge">
<title>q2&#45;&gt;qDead</title>
<path fill="none" stroke="black" d="M1194.43,-356.36C1066.17,-354.8 380.46,-345.25 345,-319.47 309.42,-293.6 318.38,-269.98 310.5,-226.71 299.45,-166.03 267.84,-132.96 310,-87.95 361.19,-33.3 895.25,-33.94 1057.5,-35.41"/>
<polygon fill="black" stroke="black" points="1057.43,-38.91 1067.46,-35.51 1057.49,-31.91 1057.43,-38.91"/>
<text text-anchor="middle" x="323.25" y="-213.41" font-family="Times New Roman,serif" font-size="14.00">Pron</text>
</g>
<!-- q2&#45;&gt;qDead -->
<g id="edge25" class="edge">
<title>q2&#45;&gt;qDead</title>
<path fill="none" stroke="black" d="M1194.7,-354.28C1073.7,-339.94 449.81,-258.99 360,-104.45 356.32,-98.11 355,-93.31 360,-87.95 407.55,-36.96 901.76,-34.98 1057.36,-35.63"/>
<polygon fill="black" stroke="black" points="1057.29,-39.13 1067.3,-35.68 1057.32,-32.13 1057.29,-39.13"/>
<text text-anchor="middle" x="576.74" y="-213.41" font-family="Times New Roman,serif" font-size="14.00">Subs</text>
</g>
<!-- q2&#45;&gt;qNeu -->
<g id="edge20" class="edge">
<title>q2&#45;&gt;qNeu</title>
<path fill="none" stroke="black" d="M1195.69,-350.77C1106.31,-323.8 731.56,-210.7 602.16,-171.65"/>
<polygon fill="black" stroke="black" points="603.52,-168.41 592.93,-168.87 601.5,-175.11 603.52,-168.41"/>
<text text-anchor="middle" x="994.55" y="-259.79" font-family="Times New Roman,serif" font-size="14.00">AdjNeu</text>
</g>
<!-- q2&#45;&gt;q2 -->
<g id="edge21" class="edge">
<title>q2&#45;&gt;q2</title>
<path fill="none" stroke="black" d="M1235.01,-361.84C1244.63,-362.36 1253.13,-360.95 1253.13,-357.6 1253.13,-355.71 1250.44,-354.44 1246.38,-353.78"/>
<polygon fill="black" stroke="black" points="1246.65,-350.29 1236.52,-353.41 1246.38,-357.28 1246.65,-350.29"/>
<text text-anchor="middle" x="1265.88" y="-352.55" font-family="Times New Roman,serif" font-size="14.00">Verb</text>
</g>
<!-- q2&#45;&gt;q2 -->
<g id="edge22" class="edge">
<title>q2&#45;&gt;q2</title>
<path fill="none" stroke="black" d="M1234.45,-364.45C1254.66,-368.35 1278.63,-366.07 1278.63,-357.6 1278.63,-350.65 1262.5,-347.87 1245.55,-349.24"/>
<polygon fill="black" stroke="black" points="1245.39,-345.73 1235.95,-350.55 1246.33,-352.67 1245.39,-345.73"/>
<text text-anchor="middle" x="1290.26" y="-352.55" font-family="Times New Roman,serif" font-size="14.00">Adv</text>
</g>
<!-- qNeg -->
<g id="node8" class="node">
<title>qNeg</title>
<ellipse fill="none" stroke="black" cx="989" cy="-157.33" rx="30.88" ry="30.88"/>
<ellipse fill="none" stroke="black" cx="989" cy="-157.33" rx="34.88" ry="34.88"/>
<text text-anchor="middle" x="989" y="-152.28" font-family="Times New Roman,serif" font-size="14.00">qNeg</text>
</g>
<!-- q2&#45;&gt;qNeg -->
<g id="edge19" class="edge">
<title>q2&#45;&gt;qNeg</title>
<path fill="none" stroke="black" d="M1200.17,-343.59C1164.6,-312.38 1073.65,-232.59 1023.5,-188.59"/>
<polygon fill="black" stroke="black" points="1025.89,-186.03 1016.06,-182.07 1021.27,-191.29 1025.89,-186.03"/>
<text text-anchor="middle" x="1153.19" y="-259.79" font-family="Times New Roman,serif" font-size="14.00">AdjNeg</text>
</g>
<!-- q3 -->
<g id="node9" class="node">
<title>q3</title>
<ellipse fill="none" stroke="black" cx="1635" cy="-264.84" rx="20.13" ry="20.13"/>
<text text-anchor="middle" x="1635" y="-259.79" font-family="Times New Roman,serif" font-size="14.00">q3</text>
</g>
<!-- q2&#45;&gt;q3 -->
<g id="edge23" class="edge">
<title>q2&#45;&gt;q3</title>
<path fill="none" stroke="black" d="M1234.69,-352.34C1301.87,-337.83 1522.32,-290.19 1604.11,-272.51"/>
<polygon fill="black" stroke="black" points="1604.83,-275.94 1613.87,-270.4 1603.36,-269.09 1604.83,-275.94"/>
<text text-anchor="middle" x="1472.37" y="-306.17" font-family="Times New Roman,serif" font-size="14.00">Det</text>
</g>
<!-- qNeg&#45;&gt;qDead -->
<g id="edge58" class="edge">
<title>qNeg&#45;&gt;qDead</title>
<path fill="none" stroke="black" d="M954.15,-151.93C904.33,-144.23 821.95,-125.45 852.5,-87.95 877.87,-56.8 992.11,-43.75 1057.56,-38.75"/>
<polygon fill="black" stroke="black" points="1057.56,-42.26 1067.28,-38.05 1057.06,-35.28 1057.56,-42.26"/>
<text text-anchor="middle" x="862.25" y="-91.15" font-family="Times New Roman,serif" font-size="14.00">Det</text>
</g>
<!-- qNeg&#45;&gt;qDead -->
<g id="edge59" class="edge">
<title>qNeg&#45;&gt;qDead</title>
<path fill="none" stroke="black" d="M955.46,-146.87C920.91,-135.45 874.82,-114.41 895.5,-87.95 915.28,-62.63 1002.84,-47.85 1058.01,-40.89"/>
<polygon fill="black" stroke="black" points="1058.24,-44.39 1067.75,-39.71 1057.4,-37.44 1058.24,-44.39"/>
<text text-anchor="middle" x="908.25" y="-91.15" font-family="Times New Roman,serif" font-size="14.00">Verb</text>
</g>
<!-- qNeg&#45;&gt;qDead -->
<g id="edge60" class="edge">
<title>qNeg&#45;&gt;qDead</title>
<path fill="none" stroke="black" d="M961.32,-135.96C946.05,-122.2 932.28,-103.72 943.75,-87.95 969.54,-52.46 1020.12,-40.72 1057.59,-37.08"/>
<polygon fill="black" stroke="black" points="1057.55,-40.59 1067.24,-36.31 1057,-33.61 1057.55,-40.59"/>
<text text-anchor="middle" x="955.38" y="-91.15" font-family="Times New Roman,serif" font-size="14.00">Adv</text>
</g>
<!-- qNeg&#45;&gt;qDead -->
<g id="edge61" class="edge">
<title>qNeg&#45;&gt;qDead</title>
<path fill="none" stroke="black" d="M982.75,-122.85C982.26,-110.98 983.85,-98.07 990.5,-87.95 1005.68,-64.86 1033.88,-51.88 1058.38,-44.66"/>
<polygon fill="black" stroke="black" points="1059.09,-48.1 1067.85,-42.13 1057.29,-41.33 1059.09,-48.1"/>
<text text-anchor="middle" x="1003.25" y="-91.15" font-family="Times New Roman,serif" font-size="14.00">Pron</text>
</g>
<!-- qNeg&#45;&gt;qDead -->
<g id="edge62" class="edge">
<title>qNeg&#45;&gt;qDead</title>
<path fill="none" stroke="black" d="M1007.74,-127.41C1016.59,-114.7 1027.73,-99.97 1039.25,-87.95 1047.64,-79.19 1057.51,-70.58 1066.97,-62.96"/>
<polygon fill="black" stroke="black" points="1068.97,-65.85 1074.68,-56.92 1064.65,-60.34 1068.97,-65.85"/>
<text text-anchor="middle" x="1060.62" y="-91.15" font-family="Times New Roman,serif" font-size="14.00">AdjNeg</text>
</g>
<!-- qNeg&#45;&gt;qDead -->
<g id="edge63" class="edge">
<title>qNeg&#45;&gt;qDead</title>
<path fill="none" stroke="black" d="M1021.98,-145.08C1041.92,-136.73 1066.42,-123.47 1082,-104.45 1087.68,-97.52 1091.9,-89.1 1095.04,-80.57"/>
<polygon fill="black" stroke="black" points="1098.3,-81.84 1098,-71.25 1091.63,-79.72 1098.3,-81.84"/>
<text text-anchor="middle" x="1104.36" y="-91.15" font-family="Times New Roman,serif" font-size="14.00">Subs</text>
</g>
<!-- qNeg&#45;&gt;qDead -->
<g id="edge64" class="edge">
<title>qNeg&#45;&gt;qDead</title>
<path fill="none" stroke="black" d="M1024.09,-153.25C1055.37,-148.43 1099.44,-136.09 1121,-104.45 1126.61,-96.21 1126.94,-86.29 1124.77,-76.59"/>
<polygon fill="black" stroke="black" points="1128.19,-75.78 1121.87,-67.28 1121.51,-77.87 1128.19,-75.78"/>
<text text-anchor="middle" x="1145.83" y="-91.15" font-family="Times New Roman,serif" font-size="14.00">AdjPos</text>
</g>
<!-- qNeg&#45;&gt;qDead -->
<g id="edge65" class="edge">
<title>qNeg&#45;&gt;qDead</title>
<path fill="none" stroke="black" d="M953.8,-155.4C887.68,-152.43 755.33,-140 799.25,-87.95 831.72,-49.47 980.29,-39.47 1057.33,-36.88"/>
<polygon fill="black" stroke="black" points="1057.21,-40.39 1067.1,-36.58 1057,-33.39 1057.21,-40.39"/>
<text text-anchor="middle" x="820.62" y="-91.15" font-family="Times New Roman,serif" font-size="14.00">AdjNeu</text>
</g>
<!-- q3&#45;&gt;qPos -->
<g id="edge26" class="edge">
<title>q3&#45;&gt;qPos</title>
<path fill="none" stroke="black" d="M1614.53,-262.39C1582.78,-259.45 1520.45,-250.84 1473.75,-226.71 1456.16,-217.61 1439.4,-203.55 1426.05,-190.54"/>
<polygon fill="black" stroke="black" points="1428.8,-188.34 1419.27,-183.71 1423.83,-193.27 1428.8,-188.34"/>
<text text-anchor="middle" x="1486.88" y="-213.41" font-family="Times New Roman,serif" font-size="14.00">Subs</text>
</g>
<!-- q3&#45;&gt;qDead -->
<g id="edge27" class="edge">
<title>q3&#45;&gt;qDead</title>
<path fill="none" stroke="black" d="M1655.34,-263.15C1688.51,-261.24 1755.42,-254 1804,-226.71 1822.5,-216.31 1829.1,-211.9 1837,-192.21 1855.1,-147.1 1847.96,-108.69 1804,-87.95 1745.18,-60.2 1297.73,-42.59 1150.67,-37.5"/>
<polygon fill="black" stroke="black" points="1151.03,-34.01 1140.91,-37.17 1150.79,-41.01 1151.03,-34.01"/>
<text text-anchor="middle" x="1856.01" y="-152.28" font-family="Times New Roman,serif" font-size="14.00">Det</text>
</g>
<!-- q3&#45;&gt;qDead -->
<g id="edge28" class="edge">
<title>q3&#45;&gt;qDead</title>
<path fill="none" stroke="black" d="M1655.3,-263.29C1691.8,-261.6 1770.17,-254.71 1829,-226.71 1850.5,-216.47 1859.95,-213.8 1870,-192.21 1883.08,-164.1 1882.91,-150.63 1870,-122.45 1860.22,-101.1 1851.7,-96.91 1830,-87.95 1706.31,-36.88 1290.36,-34.74 1150.4,-35.52"/>
<polygon fill="black" stroke="black" points="1150.75,-32.02 1140.78,-35.58 1150.8,-39.02 1150.75,-32.02"/>
<text text-anchor="middle" x="1892.5" y="-152.28" font-family="Times New Roman,serif" font-size="14.00">Verb</text>
</g>
<!-- q3&#45;&gt;qDead -->
<g id="edge29" class="edge">
<title>q3&#45;&gt;qDead</title>
<path fill="none" stroke="black" d="M1615.64,-258.44C1588.86,-249.72 1542.17,-229.6 1527.75,-192.21 1516.6,-163.28 1511.01,-148.54 1527.75,-122.45 1538.11,-106.29 1556.64,-120.6 1567,-104.45 1570.96,-98.27 1571.89,-93.41 1567,-87.95 1539.53,-57.23 1262.4,-42.48 1150.49,-37.74"/>
<polygon fill="black" stroke="black" points="1150.9,-34.26 1140.77,-37.34 1150.61,-41.25 1150.9,-34.26"/>
<text text-anchor="middle" x="1539.38" y="-152.28" font-family="Times New Roman,serif" font-size="14.00">Adv</text>
</g>
<!-- q3&#45;&gt;qDead -->
<g id="edge30" class="edge">
<title>q3&#45;&gt;qDead</title>
<path fill="none" stroke="black" d="M1621.77,-249.19C1610.35,-235.54 1594.6,-214.06 1587.5,-192.21 1583.91,-181.18 1590.93,-96.41 1583,-87.95 1553.73,-56.71 1264.95,-42.2 1150.44,-37.63"/>
<polygon fill="black" stroke="black" points="1150.91,-34.15 1140.79,-37.26 1150.64,-41.14 1150.91,-34.15"/>
<text text-anchor="middle" x="1600.25" y="-152.28" font-family="Times New Roman,serif" font-size="14.00">Pron</text>
</g>
<!-- q3&#45;&gt;qDead -->
<g id="edge31" class="edge">
<title>q3&#45;&gt;qDead</title>
<path fill="none" stroke="black" d="M1638.15,-244.57C1643.06,-206.99 1647.45,-124.39 1599,-87.95 1563.58,-61.3 1266.89,-43.98 1150.55,-38.15"/>
<polygon fill="black" stroke="black" points="1150.89,-34.67 1140.73,-37.67 1150.55,-41.66 1150.89,-34.67"/>
<text text-anchor="middle" x="1662.21" y="-152.28" font-family="Times New Roman,serif" font-size="14.00">AdjNeg</text>
</g>
<!-- q3&#45;&gt;qDead -->
<g id="edge32" class="edge">
<title>q3&#45;&gt;qDead</title>
<path fill="none" stroke="black" d="M1649.24,-250.33C1662.18,-236.99 1680.39,-215.27 1688,-192.21 1697.71,-162.76 1704.22,-148.87 1688,-122.45 1670.27,-93.57 1652.52,-97.47 1620,-87.95 1532.46,-62.31 1260.25,-44.7 1150.54,-38.47"/>
<polygon fill="black" stroke="black" points="1150.9,-34.98 1140.72,-37.92 1150.51,-41.97 1150.9,-34.98"/>
<text text-anchor="middle" x="1717.75" y="-152.28" font-family="Times New Roman,serif" font-size="14.00">AdjPos</text>
</g>
<!-- q3&#45;&gt;qDead -->
<g id="edge33" class="edge">
<title>q3&#45;&gt;qDead</title>
<path fill="none" stroke="black" d="M1653.96,-257.55C1679.35,-247.99 1723.36,-227.11 1742,-192.21 1756.6,-164.86 1759.15,-148.27 1742,-122.45 1720.12,-89.51 1698.35,-97.57 1660,-87.95 1475.62,-41.71 1247.52,-35.81 1150.83,-35.58"/>
<polygon fill="black" stroke="black" points="1150.94,-32.08 1140.94,-35.58 1150.94,-39.08 1150.94,-32.08"/>
<text text-anchor="middle" x="1775.3" y="-152.28" font-family="Times New Roman,serif" font-size="14.00">AdjNeu</text>
</g>
</g>
</svg>
