<?xml version="1.0" encoding="UTF-8" standalone="no"?>
<!DOCTYPE svg PUBLIC "-//W3C//DTD SVG 1.1//EN"
 "http://www.w3.org/Graphics/SVG/1.1/DTD/svg11.dtd">
<!-- Generated by graphviz version 12.2.1 (20241206.2353)
 -->
<!-- Pages: 1 -->
<svg width="456pt" height="222pt"
 viewBox="0.00 0.00 456.41 222.02" xmlns="http://www.w3.org/2000/svg" xmlns:xlink="http://www.w3.org/1999/xlink">
<g id="graph0" class="graph" transform="scale(1 1) rotate(0) translate(4 218.02)">
<polygon fill="white" stroke="none" points="-4,4 -4,-218.02 452.41,-218.02 452.41,4 -4,4"/>
<g id="node1" class="node">
<title></title>
</g>
<!-- q0 -->
<g id="node2" class="node">
<title>q0</title>
<ellipse fill="none" stroke="black" cx="218.28" cy="-120.89" rx="20.13" ry="20.13"/>
<text text-anchor="middle" x="218.28" y="-115.84" font-family="Times New Roman,serif" font-size="14.00">q0</text>
</g>
<!-- &#45;&gt;q0 -->
<g id="edge1" class="edge">
<title>&#45;&gt;q0</title>
<path fill="none" stroke="black" d="M218.28,-178.06C218.28,-170.52 218.28,-161.4 218.28,-152.72"/>
<polygon fill="black" stroke="black" points="221.78,-152.86 218.28,-142.86 214.78,-152.86 221.78,-152.86"/>
</g>
<!-- q0&#45;&gt;q0 -->
<g id="edge3" class="edge">
<title>q0&#45;&gt;q0</title>
<path fill="none" stroke="black" d="M238.68,-122.36C248.14,-122.52 256.41,-122.03 256.41,-120.89 256.41,-120.27 253.94,-119.84 250.15,-119.61"/>
<polygon fill="black" stroke="black" points="250.25,-116.11 240.19,-119.45 250.14,-123.11 250.25,-116.11"/>
<text text-anchor="middle" x="266.16" y="-115.84" font-family="Times New Roman,serif" font-size="14.00">Det</text>
</g>
<!-- q0&#45;&gt;q0 -->
<g id="edge4" class="edge">
<title>q0&#45;&gt;q0</title>
<path fill="none" stroke="black" d="M238.74,-123.4C256.67,-124.54 275.91,-123.71 275.91,-120.89 275.91,-118.67 263.93,-117.69 250.07,-117.93"/>
<polygon fill="black" stroke="black" points="250.1,-114.43 240.25,-118.33 250.39,-121.42 250.1,-114.43"/>
<text text-anchor="middle" x="288.66" y="-115.84" font-family="Times New Roman,serif" font-size="14.00">Pron</text>
</g>
<!-- q0&#45;&gt;q0 -->
<g id="edge5" class="edge">
<title>q0&#45;&gt;q0</title>
<path fill="none" stroke="black" d="M238.37,-123.97C265.75,-126.61 301.41,-125.58 301.41,-120.89 301.41,-116.83 274.6,-115.52 249.62,-116.96"/>
<polygon fill="black" stroke="black" points="249.59,-113.45 239.88,-117.7 250.12,-120.43 249.59,-113.45"/>
<text text-anchor="middle" x="314.16" y="-115.84" font-family="Times New Roman,serif" font-size="14.00">Verb</text>
</g>
<!-- q0&#45;&gt;q0 -->
<g id="edge6" class="edge">
<title>q0&#45;&gt;q0</title>
<path fill="none" stroke="black" d="M238.43,-124.4C274.23,-128.64 326.91,-127.47 326.91,-120.89 326.91,-114.98 284.38,-113.44 249.78,-116.26"/>
<polygon fill="black" stroke="black" points="249.54,-112.77 239.93,-117.24 250.23,-119.73 249.54,-112.77"/>
<text text-anchor="middle" x="338.54" y="-115.84" font-family="Times New Roman,serif" font-size="14.00">Adv</text>
</g>
<!-- q0&#45;&gt;q0 -->
<g id="edge8" class="edge">
<title>q0&#45;&gt;q0</title>
<path fill="none" stroke="black" d="M238.29,-124.73C281.46,-130.67 350.16,-129.39 350.16,-120.89 350.16,-113.11 292.52,-111.39 249.65,-115.72"/>
<polygon fill="black" stroke="black" points="249.31,-112.23 239.79,-116.88 250.13,-119.18 249.31,-112.23"/>
<text text-anchor="middle" x="363.29" y="-115.84" font-family="Times New Roman,serif" font-size="14.00">Subs</text>
</g>
<!-- q1 -->
<g id="node3" class="node">
<title>q1</title>
<ellipse fill="none" stroke="black" cx="218.28" cy="-24.13" rx="20.13" ry="20.13"/>
<ellipse fill="none" stroke="black" cx="218.28" cy="-24.13" rx="24.13" ry="24.13"/>
<text text-anchor="middle" x="218.28" y="-19.08" font-family="Times New Roman,serif" font-size="14.00">q1</text>
</g>
<!-- q0&#45;&gt;q1 -->
<g id="edge2" class="edge">
<title>q0&#45;&gt;q1</title>
<path fill="none" stroke="black" d="M198.02,-119.56C149.4,-118.3 28.32,-112.21 3.53,-82.76 -1.19,-77.15 -1.14,-71.91 3.53,-66.26 25.84,-39.28 127.5,-29.82 182.57,-26.65"/>
<polygon fill="black" stroke="black" points="182.58,-30.15 192.38,-26.13 182.21,-23.16 182.58,-30.15"/>
<text text-anchor="middle" x="23.4" y="-69.46" font-family="Times New Roman,serif" font-size="14.00">AdjPos</text>
</g>
<!-- q0&#45;&gt;q1 -->
<g id="edge7" class="edge">
<title>q0&#45;&gt;q1</title>
<path fill="none" stroke="black" d="M197.88,-117.96C160.33,-113.95 82.65,-103.3 66.53,-82.76 34.27,-41.66 128.33,-29.87 182.66,-26.49"/>
<polygon fill="black" stroke="black" points="182.61,-29.99 192.4,-25.95 182.22,-23 182.61,-29.99"/>
<text text-anchor="middle" x="87.9" y="-69.46" font-family="Times New Roman,serif" font-size="14.00">AdjNeu</text>
</g>
<!-- q0&#45;&gt;q1 -->
<g id="edge9" class="edge">
<title>q0&#45;&gt;q1</title>
<path fill="none" stroke="black" d="M198.3,-117.5C177.84,-113.87 147.05,-104.87 132.53,-82.76 116.88,-58.93 153.73,-42.47 183.92,-33.42"/>
<polygon fill="black" stroke="black" points="184.49,-36.9 193.17,-30.83 182.6,-30.15 184.49,-36.9"/>
<text text-anchor="middle" x="153.9" y="-69.46" font-family="Times New Roman,serif" font-size="14.00">AdjNeg</text>
</g>
<!-- q1&#45;&gt;q0 -->
<g id="edge11" class="edge">
<title>q1&#45;&gt;q0</title>
<path fill="none" stroke="black" d="M205.57,-45.15C200.12,-56.13 195.64,-70.05 198.78,-82.76 199.67,-86.37 200.98,-90.01 202.5,-93.53"/>
<polygon fill="black" stroke="black" points="199.25,-94.85 206.85,-102.22 205.51,-91.71 199.25,-94.85"/>
<text text-anchor="middle" x="208.53" y="-69.46" font-family="Times New Roman,serif" font-size="14.00">Det</text>
</g>
<!-- q1&#45;&gt;q0 -->
<g id="edge12" class="edge">
<title>q1&#45;&gt;q0</title>
<path fill="none" stroke="black" d="M218.28,-48.64C218.28,-60.93 218.28,-76.11 218.28,-89.3"/>
<polygon fill="black" stroke="black" points="214.78,-89.2 218.28,-99.2 221.78,-89.2 214.78,-89.2"/>
<text text-anchor="middle" x="231.03" y="-69.46" font-family="Times New Roman,serif" font-size="14.00">Pron</text>
</g>
<!-- q1&#45;&gt;q0 -->
<g id="edge13" class="edge">
<title>q1&#45;&gt;q0</title>
<path fill="none" stroke="black" d="M234.44,-42.17C239.95,-49.1 245.43,-57.52 248.28,-66.26 250.55,-73.23 250.72,-75.85 248.28,-82.76 246.41,-88.05 243.43,-93.14 240.06,-97.76"/>
<polygon fill="black" stroke="black" points="237.46,-95.41 233.79,-105.35 242.86,-99.87 237.46,-95.41"/>
<text text-anchor="middle" x="262.8" y="-69.46" font-family="Times New Roman,serif" font-size="14.00">Verb</text>
</g>
<!-- q1&#45;&gt;q0 -->
<g id="edge14" class="edge">
<title>q1&#45;&gt;q0</title>
<path fill="none" stroke="black" d="M240.79,-34.04C262.66,-44.14 290.99,-61.93 279.28,-82.76 272.42,-94.97 259.74,-103.63 247.72,-109.5"/>
<polygon fill="black" stroke="black" points="246.64,-106.15 238.86,-113.35 249.43,-112.57 246.64,-106.15"/>
<text text-anchor="middle" x="293.64" y="-69.46" font-family="Times New Roman,serif" font-size="14.00">Adv</text>
</g>
<!-- q1&#45;&gt;q0 -->
<g id="edge16" class="edge">
<title>q1&#45;&gt;q0</title>
<path fill="none" stroke="black" d="M242,-29.84C274.85,-37.49 328.16,-54.67 309.28,-82.76 296.09,-102.39 270.52,-111.65 249.83,-116.01"/>
<polygon fill="black" stroke="black" points="249.36,-112.54 240.14,-117.75 250.6,-119.43 249.36,-112.54"/>
<text text-anchor="middle" x="326.35" y="-69.46" font-family="Times New Roman,serif" font-size="14.00">Subs</text>
</g>
<!-- q1&#45;&gt;q1 -->
<g id="edge10" class="edge">
<title>q1&#45;&gt;q1</title>
<path fill="none" stroke="black" d="M242.52,-27.26C252.25,-27.44 260.41,-26.39 260.41,-24.13 260.41,-22.86 257.83,-21.97 253.84,-21.47"/>
<polygon fill="black" stroke="black" points="254.17,-17.98 244.04,-21.06 253.88,-24.97 254.17,-17.98"/>
<text text-anchor="middle" x="280.29" y="-19.08" font-family="Times New Roman,serif" font-size="14.00">AdjPos</text>
</g>
<!-- q1&#45;&gt;q1 -->
<g id="edge15" class="edge">
<title>q1&#45;&gt;q1</title>
<path fill="none" stroke="black" d="M241.98,-29.14C267.52,-31.9 300.16,-30.23 300.16,-24.13 300.16,-18.91 276.27,-16.94 253.38,-18.21"/>
<polygon fill="black" stroke="black" points="253.17,-14.71 243.49,-19 253.74,-21.69 253.17,-14.71"/>
<text text-anchor="middle" x="321.54" y="-19.08" font-family="Times New Roman,serif" font-size="14.00">AdjNeu</text>
</g>
<!-- q1&#45;&gt;q1 -->
<g id="edge17" class="edge">
<title>q1&#45;&gt;q1</title>
<path fill="none" stroke="black" d="M241.98,-30.29C280.61,-36.2 342.91,-34.14 342.91,-24.13 342.91,-15.06 291.75,-12.52 253.4,-16.52"/>
<polygon fill="black" stroke="black" points="252.96,-13.05 243.48,-17.78 253.84,-19.99 252.96,-13.05"/>
<text text-anchor="middle" x="364.29" y="-19.08" font-family="Times New Roman,serif" font-size="14.00">AdjNeg</text>
</g>
</g>
</svg>
